<?xml version="1.0" encoding="UTF-8" standalone="no"?>
<svg
   xmlns:dc="http://purl.org/dc/elements/1.1/"
   xmlns:cc="http://creativecommons.org/ns#"
   xmlns:rdf="http://www.w3.org/1999/02/22-rdf-syntax-ns#"
   xmlns:svg="http://www.w3.org/2000/svg"
   xmlns="http://www.w3.org/2000/svg"
   xmlns:xlink="http://www.w3.org/1999/xlink"
   xmlns:sodipodi="http://sodipodi.sourceforge.net/DTD/sodipodi-0.dtd"
   xmlns:inkscape="http://www.inkscape.org/namespaces/inkscape"
   width="56"
   height="56"
   viewBox="0 0 56 56"
   version="1.1"
   id="svg70"
   sodipodi:docname="MYOB-icon.svg"
   inkscape:version="0.92.4 (5da689c313, 2019-01-14)">
  <metadata
     id="metadata76">
    <rdf:RDF>
      <cc:Work
         rdf:about="">
        <dc:format>image/svg+xml</dc:format>
        <dc:type
           rdf:resource="http://purl.org/dc/dcmitype/StillImage" />
        <dc:title>MYOB</dc:title>
      </cc:Work>
    </rdf:RDF>
  </metadata>
  <defs
     id="defs74">
    <linearGradient
       gradientTransform="matrix(0.486,0,0,0.486,5.3280996,0.4195028)"
       inkscape:collect="always"
       xlink:href="#myob-logo-gradient"
       id="linearGradient32"
       gradientUnits="userSpaceOnUse"
       x1="0"
       y1="58.208302"
       x2="283.4646"
       y2="58.208302" />
    <linearGradient
       id="myob-logo-gradient"
       gradientUnits="userSpaceOnUse"
       x1="0"
       y1="58.208302"
       x2="283.4646"
       y2="58.208302">
      <stop
         offset="0.36"
         stop-color="#6100A5"
         id="stop4" />
      <stop
         offset="0.4557"
         stop-color="#7001A0"
         id="stop6" />
      <stop
         offset="0.6409"
         stop-color="#980293"
         id="stop8" />
      <stop
         offset="0.8947"
         stop-color="#D9057E"
         id="stop10" />
      <stop
         offset="0.97"
         stop-color="#ED0677"
         id="stop12" />
    </linearGradient>
  </defs>
  <sodipodi:namedview
     pagecolor="#ffffff"
     bordercolor="#666666"
     borderopacity="1"
     objecttolerance="10"
     gridtolerance="10"
     guidetolerance="10"
     inkscape:pageopacity="0"
     inkscape:pageshadow="2"
     inkscape:window-width="1920"
     inkscape:window-height="1017"
     id="namedview72"
     showgrid="false"
     inkscape:zoom="3.7857143"
     inkscape:cx="28"
     inkscape:cy="28"
     inkscape:window-x="1358"
     inkscape:window-y="-8"
     inkscape:window-maximized="1"
     inkscape:current-layer="svg70" />
  <style
     id="style44">.a{fill:#ffe01b;}.b{stroke-width:0.3;}</style>
  <title
     id="title46">Mailchimp</title>
  <desc
     id="desc48">  Created with Sketch.</desc>
  <g
     class="a"
     id="g52"
     style="fill:#ffffff">
    <g
       id="g148">
      <path
         style="fill:#ffffff"
		 stroke="#E7E7EA"
         id="path50"
         class="a"
         d="M3 0L53 0C54.7 0 56 1.3 56 3L56 53C56 54.7 54.7 56 53 56L3 56C1.3 56 0 54.7 0 53L0 3C0 1.3 1.3 0 3 0Z" />
    </g>
  </g>
  <path
     inkscape:connector-curvature="0"
     style="fill:url(#linearGradient32);stroke-width:0.48600003"
     id="path17"
     d="M 28.0729,17.0407 C 25.9345,14.4649 22.6783,12.8611 18.6445,12.8611 10.5769,12.8125 5.3281,18.5473 5.3281,26.0317 v 17.1558 h 2.4786 c 1.701,-0.0972 5.0058,-0.9234 5.103,-5.832 V 25.8859 c 0,-3.3534 2.3328,-5.6376 5.7348,-5.6376 5.0058,0 5.5404,3.9852 5.5404,5.6376 v 17.3016 h 2.4786 c 1.6524,-0.0972 4.9572,-0.9234 5.103,-5.7834 V 25.8859 c 0,-3.3534 2.43,-5.6376 5.7348,-5.6376 5.0058,0 5.589,3.9852 5.589,5.6376 v 17.3016 h 2.4786 c 1.701,-0.0972 5.0544,-0.9234 5.103,-5.9292 V 26.0317 c 0,-7.776 -4.9086,-13.2192 -13.1706,-13.2192 -3.8394,0 -7.1928,1.6524 -9.4284,4.2282" />
</svg>
