<?xml version="1.0" encoding="utf-8"?>
<!-- Generator: Adobe Illustrator 25.2.3, SVG Export Plug-In . SVG Version: 6.00 Build 0)  -->
<svg version="1.1" id="Layer_1" xmlns="http://www.w3.org/2000/svg" xmlns:xlink="http://www.w3.org/1999/xlink" x="0px" y="0px"
	 viewBox="0 0 56 56" style="enable-background:new 0 0 56 56;" xml:space="preserve">
<style type="text/css">
	.st0{fill:#FFFFFF;stroke:#E7E7EA;}
	.st1{fill-rule:evenodd;clip-rule:evenodd;fill:#00DC00;}
</style>
<g id="Logos-_x2F_-Icon-_x2F_-Sage">
	<g id="app-icon-widget">
		<path class="st0" d="M53.1,0.5c0.69,0,1.32,0.28,1.77,0.73S55.6,2.31,55.6,3l0,0v50c0,0.69-0.28,1.32-0.73,1.77
			c-0.45,0.45-1.08,0.73-1.77,0.73l0,0H3c-0.69,0-1.32-0.28-1.77-0.73C0.78,54.32,0.5,53.69,0.5,53l0,0V3
			c0-0.69,0.28-1.32,0.73-1.77S2.31,0.5,3,0.5l0,0H53.1z"/>
	</g>
	<path id="Fill-1" class="st1" d="M33.79,24.03c-3.54-0.44-13.78-0.04-13.78-4.71c0-2.77,4.29-4.26,8.25-4.26
		c6.33,0,10.5,2.53,11.71,3.37l5.32-5.32c-1.57-1.27-7.43-5.41-17.03-5.41c-8.74,0-16.6,4.57-16.6,11.9
		c0,11.24,13.57,11.24,19.24,11.8c3.43,0.34,6.57,0.57,6.57,3.94c0,3.13-4.79,4.87-8.5,4.87c-6.05,0-9.67-1.99-13.21-5.17
		l-5.72,5.73c5.25,5.07,11.89,7.3,18.44,7.3c10.14,0,17.56-4.48,17.56-13.48C46.02,28.61,42.01,25.05,33.79,24.03"/>
</g>
</svg>
