<?xml version="1.0" encoding="UTF-8" standalone="no"?>
<svg
   xmlns:dc="http://purl.org/dc/elements/1.1/"
   xmlns:cc="http://creativecommons.org/ns#"
   xmlns:rdf="http://www.w3.org/1999/02/22-rdf-syntax-ns#"
   xmlns:svg="http://www.w3.org/2000/svg"
   xmlns="http://www.w3.org/2000/svg"
   xmlns:sodipodi="http://sodipodi.sourceforge.net/DTD/sodipodi-0.dtd"
   xmlns:inkscape="http://www.inkscape.org/namespaces/inkscape"
   width="56"
   height="56"
   viewBox="0 0 56 56"
   version="1.1"
   id="svg70"
   sodipodi:docname="Unleashed-icon.svg"
   inkscape:version="0.92.4 (5da689c313, 2019-01-14)">
  <metadata
     id="metadata76">
    <rdf:RDF>
      <cc:Work
         rdf:about="">
        <dc:format>image/svg+xml</dc:format>
        <dc:type
           rdf:resource="http://purl.org/dc/dcmitype/StillImage" />
        <dc:title>Unleashed</dc:title>
      </cc:Work>
    </rdf:RDF>
  </metadata>
  <defs
     id="defs74" />
  <sodipodi:namedview
     pagecolor="#ffffff"
     bordercolor="#666666"
     borderopacity="1"
     objecttolerance="10"
     gridtolerance="10"
     guidetolerance="10"
     inkscape:pageopacity="0"
     inkscape:pageshadow="2"
     inkscape:window-width="1920"
     inkscape:window-height="1017"
     id="namedview72"
     showgrid="false"
     inkscape:zoom="3.7857143"
     inkscape:cx="28"
     inkscape:cy="28"
     inkscape:window-x="1358"
     inkscape:window-y="-8"
     inkscape:window-maximized="1"
     inkscape:current-layer="svg70" />
  <style
     id="style44">.a{fill:#ffe01b;}.b{stroke-width:0.3;}</style>
  <title
     id="title46">Mailchimp</title>
  <desc
     id="desc48">  Created with Sketch.</desc>
  <g
     class="a"
     id="g52"
     style="fill:#ffffff">
    <g
       id="g148">
      <path
         style="fill:#ffffff"
		 stroke="#E7E7EA"
         id="path50"
         class="a"
         d="M3 0L53 0C54.7 0 56 1.3 56 3L56 53C56 54.7 54.7 56 53 56L3 56C1.3 56 0 54.7 0 53L0 3C0 1.3 1.3 0 3 0Z" />
    </g>
  </g>
  <g
     transform="matrix(0.46360975,0,0,0.42991304,6.9235547,4.84298)"
     id="g8">
    <polygon
       style="fill:#fc4f4f"
       id="polygon4"
       points="56.9,59.8 43,54.5 0,85.3 55.6,106.4 "
       class="st0" />
    <polygon
       style="fill:#fc4f4f"
       id="polygon6"
       points="0,30.8 0,82.4 43.3,51.4 43.3,42.9 "
       class="st0" />
  </g>
  <g
     id="g145"
     transform="translate(-2)">
    <g
       class="st1"
       id="g32"
       style="opacity:0.25"
       transform="matrix(0.46360975,0,0,0.42991304,6.9235547,4.84298)">
      <polygon
         points="43,54.5 0,85.3 55.6,106.4 56.9,59.8 "
         id="polygon28" />
      <polygon
         points="0,82.4 43.3,51.4 43.3,42.9 0,30.8 "
         id="polygon30" />
    </g>
    <g
       id="g38"
       transform="matrix(0.46360975,0,0,0.42991304,6.9235547,4.84298)">
      <polygon
         class="st0"
         points="98.9,75.7 98.9,24.1 55.6,55.1 55.6,59.3 55.6,106.4 "
         id="polygon34"
         style="fill:#fc4f4f" />
      <polygon
         class="st0"
         points="0,30.8 43.3,47.2 55.9,52 98.9,21.2 43.3,0.1 "
         id="polygon36"
         style="fill:#fc4f4f" />
    </g>
  </g>
</svg>
