<?xml version="1.0" encoding="UTF-8"?>
<svg width="56px" height="56px" viewBox="0 0 56 56" version="1.1" xmlns="http://www.w3.org/2000/svg" xmlns:xlink="http://www.w3.org/1999/xlink">
    <!-- Generator: Sketch 56 (81588) - https://sketch.com -->
    <title>Components/App Logos / Icons  / Xero</title>
    <desc>Created with Sketch.</desc>
    <g id="Components/App-Logos-/-Icons--/-Xero" stroke="none" stroke-width="1" fill="none" fill-rule="evenodd">
        <path d="M3,0 L53.0977312,0 C54.7545855,-7.48448398e-16 56.0977312,1.34314575 56.0977312,3 L56.0977312,53 C56.0977312,54.6568542 54.7545855,56 53.0977312,56 L3,56 C1.34314575,56 -2.41183085e-16,54.6568542 0,53 L0,3 C-6.46995335e-16,1.34314575 1.34314575,-1.39730022e-16 3,0 Z" id="App-Icon" fill="#1AB4D7"></path>
        <g id="Logo" transform="translate(6.000000, 21.000000)" fill="#FFFFFF">
            <path d="M7.59025,7.11554118 C9.18775,5.52530588 10.7985833,3.94742353 12.3969167,2.35883529 C12.68775,2.07554118 12.75525,1.59789412 12.53275,1.25777647 C12.2710833,0.804011765 11.56275,0.716717647 11.1919167,1.08565882 C9.57691667,2.67836471 7.96275,4.27271765 6.35108333,5.86871765 C4.74275,4.30895294 3.15358333,2.73107059 1.56025,1.15565882 C1.34691667,0.934952941 1.02858333,0.806482353 0.719416667,0.868247059 C0.276083333,0.943188235 -0.0614166667,1.39201176 0.00941666667,1.83342353 C0.0560833333,2.19412941 0.359416667,2.43212941 0.60025,2.67507059 C2.07358333,4.13189412 3.55191667,5.58542353 5.02108333,7.04883529 C5.02858333,7.06942353 5.04525,7.11307059 5.05358333,7.13448235 C3.46858333,8.73871765 1.84358333,10.3075412 0.24775,11.9018941 C0.02275,12.1275412 -0.0555833333,12.4791882 0.05025,12.7781294 C0.171083333,13.1791882 0.626916667,13.4336588 1.03941667,13.3546 C1.37941667,13.3093059 1.58691667,13.0120118 1.82025,12.7954235 C3.34108333,11.3278941 4.83025,9.83071765 6.33775,8.34918824 C7.94025,9.91965882 9.53108333,11.5024824 11.12775,13.0778941 C11.3519167,13.3126 11.70025,13.4361294 12.02025,13.3381294 C12.42025,13.2458941 12.7069167,12.8333059 12.6610833,12.4314235 C12.6585833,12.1398941 12.45275,11.9101294 12.25275,11.7207176 C10.6960833,10.1881294 9.14441667,8.64977647 7.59025,7.11554118" id="Fill-1"></path>
            <path d="M14.4445,6.0592 C14.727,4.9532 15.4303333,3.95343529 16.4028333,3.33414118 C17.562,2.5732 19.0828333,2.38790588 20.3945,2.85072941 C21.8478333,3.33249412 22.9886667,4.59084706 23.3511667,6.06002353 C20.3828333,6.0592 17.4136667,6.06002353 14.4445,6.0592 M23.3953333,2.65061176 C22.4453333,1.69367059 21.1586667,1.07767059 19.8161667,0.901435294 C18.1845,0.6692 16.4611667,1.08590588 15.1386667,2.06261176 C13.0511667,3.55649412 12.0703333,6.37955294 12.7903333,8.82543529 C13.1845,10.2369647 14.1111667,11.4854353 15.3311667,12.3097882 C16.5103333,13.1193176 17.9745,13.5080235 19.4053333,13.3919059 C20.4178333,13.2996706 21.4153333,12.9875529 22.2795,12.4539059 C22.957,12.0347294 23.5178333,11.4574353 24.0103333,10.8414353 C24.222,10.5844941 24.2628333,10.2237882 24.1736667,9.91084706 C24.0211667,9.42167059 23.3653333,9.18202353 22.9211667,9.44143529 C22.6395,9.59049412 22.502,9.88943529 22.2953333,10.1142588 C21.722,10.7541412 20.9728333,11.2466118 20.1361667,11.4763765 C18.7303333,11.8733176 17.1253333,11.5472 16.012,10.6026118 C15.162,9.89684706 14.5353333,8.89543529 14.3795,7.80014118 C17.3086667,7.80590588 20.2378333,7.79849412 23.167,7.80343529 C23.622,7.82237647 24.0995,7.75978824 24.4903333,7.51190588 C25.0061667,7.19237647 25.2703333,6.54837647 25.1536667,5.96202353 C24.9103333,4.72178824 24.3161667,3.53508235 23.3953333,2.65061176" id="Fill-4"></path>
            <path d="M41.59575,9.68668235 C40.9449167,10.6131529 39.9265833,11.2802118 38.8090833,11.5066824 C37.8065833,11.7240941 36.73075,11.5766824 35.8199167,11.1113882 C34.59575,10.5036235 33.68075,9.31856471 33.4215833,7.98774118 C33.16075,6.75985882 33.4699167,5.42656471 34.2390833,4.42927059 C34.91325,3.52832941 35.9374167,2.89256471 37.0540833,2.69409412 C37.97575,2.5228 38.9540833,2.64303529 39.80075,3.04409412 C41.0549167,3.61891765 42.0174167,4.78750588 42.3115833,6.12574118 C42.60325,7.34044706 42.3290833,8.67209412 41.59575,9.68668235 M43.80825,4.83115294 C43.2840833,3.47974118 42.2649167,2.32597647 40.9865833,1.62350588 C39.79575,0.957270588 38.3824167,0.700329412 37.02825,0.878211765 C34.9599167,1.13927059 33.0749167,2.47915294 32.17075,4.33456471 C31.43075,5.80209412 31.3190833,7.55950588 31.8474167,9.11103529 C32.24575,10.3100941 33.0349167,11.3716235 34.0499167,12.1300941 C35.15075,12.9577412 36.5324167,13.4131529 37.91575,13.3925647 C39.29325,13.3991529 40.6640833,12.9264471 41.7540833,12.0979765 C42.86325,11.2571529 43.6849167,10.0465647 44.03325,8.70750588 C44.3749167,7.43515294 44.2974167,6.05491765 43.80825,4.83115294" id="Fill-7"></path>
            <path d="M31.9188333,2.05338824 C32.0746667,1.60209412 31.773,1.05115294 31.2938333,0.959741176 C30.3538333,0.8428 29.373,1.07997647 28.6146667,1.64574118 C28.4763333,1.19527059 27.9813333,0.886447059 27.513,1.02809412 C27.1196667,1.12444706 26.853,1.51727059 26.8763333,1.91174118 C26.873,5.39362353 26.873,8.87468235 26.8763333,12.3565647 C26.8405,12.8424471 27.2605,13.3069176 27.7605,13.2920941 C28.2288333,13.3052706 28.653,12.8968 28.6363333,12.4306824 C28.6421667,10.4097412 28.6371667,8.38715294 28.6388333,6.36538824 C28.6421667,5.61185882 28.608,4.84597647 28.7746667,4.1048 C28.8705,3.66174118 29.1213333,3.23515294 29.5263333,3.00538824 C30.0113333,2.73856471 30.5771667,2.6628 31.1246667,2.63644706 C31.478,2.63232941 31.8255,2.3968 31.9188333,2.05338824" id="Fill-10"></path>
            <path d="M37.4600833,5.59514118 C36.9625833,5.73678824 36.5350833,6.12055294 36.3734167,6.61055294 C36.2075833,7.11125882 36.3050833,7.69596471 36.6500833,8.10196471 C37.0434167,8.60102353 37.7634167,8.79702353 38.3675833,8.60514118 C39.0409167,8.39843529 39.5275833,7.70749412 39.4559167,7.00667059 C39.4425833,6.04478824 38.3834167,5.32337647 37.4600833,5.59514118" id="Fill-12"></path>
        </g>
    </g>
</svg>