<svg width="56" height="56" viewBox="0 0 56 56" fill="none" xmlns="http://www.w3.org/2000/svg">
<rect width="56" height="56" rx="4" fill="#4CB54F"/>
<path fill-rule="evenodd" clip-rule="evenodd" d="M37.1413 23.3839L28.7648 40.2204C28.6563 40.4385 28.3437 40.4385 28.2362 40.2204L19.8587 23.3839C19.7492 23.1648 19.91 22.9076 20.1562 22.9076H23.2268C23.4791 22.9076 23.7082 23.0547 23.8108 23.2839L28.4995 33.7474L33.1892 23.2839C33.2918 23.0547 33.5199 22.9076 33.7722 22.9076H36.8438C37.09 22.9076 37.2498 23.1648 37.1413 23.3839M28.4995 14.9857C29.6101 14.9857 30.5097 15.8813 30.5097 16.987C30.5097 18.0927 29.6101 18.9882 28.4995 18.9882C27.3899 18.9882 26.4893 18.0927 26.4893 16.987C26.4893 15.8813 27.3899 14.9857 28.4995 14.9857M42.6039 18.5249L30.0664 11.4135C29.0955 10.8622 27.9045 10.8622 26.9336 11.4135L14.3961 18.5249C13.5327 19.0142 13 19.9278 13 20.9164V43.2473C13 44.7672 14.2383 46 15.765 46H41.235C42.7617 46 44 44.7672 44 43.2473V20.9164C44 19.9278 43.4673 19.0142 42.6039 18.5249" fill="white"/>
</svg>
