<?xml version="1.0" encoding="UTF-8"?>
<svg width="56px" height="56px" viewBox="0 0 56 56" version="1.1" xmlns="http://www.w3.org/2000/svg" xmlns:xlink="http://www.w3.org/1999/xlink">
    <title>Logos / Icons  / Excel</title>
    <g id="Logos-/-Icons--/-Excel" stroke="none" stroke-width="1" fill="none" fill-rule="evenodd">
        <g id="Excel_64x64-(1)" transform="translate(3.000000, 7.000000)" fill-rule="nonzero">
            <path d="M30,20.9302063 L21.5055,18 L12,20.9302063 L12,39.9938546 C12,41.1018181 12.8952066,42 13.9995,42 L46.0005,42 C47.1047934,42 48,41.1018181 48,39.9938546 L48,31.4651032 L30,20.9302063 Z" id="Path" fill="#185C37"></path>
            <path d="M30,0 L13.9995,0 C12.8952066,0 12,0.902498833 12,2.01578756 L12,10.5855311 L30,21.1710622 L39,25 L48,21.1710622 L48,10.5855311 L30,0 Z" id="Path" fill="#21A366"></path>
            <rect id="Rectangle" fill="#107C41" x="12" y="11" width="18" height="11"></rect>
            <path d="M46.0005,0 L30,0 L30,11 L48,11 L48,2.09471429 C48,0.93783553 47.1047934,0 46.0005,0 Z" id="Path" fill="#33C481"></path>
            <rect id="Rectangle" fill="#107C41" x="30" y="20" width="18" height="11"></rect>
            <path d="M25.0005,8 L12,8 L12,36 L25.0005,36 C26.1034257,35.996763 26.9967052,35.1191551 27,34.0355789 L27,9.96442105 C26.9967052,8.8808449 26.1034257,8.00323699 25.0005,8 L25.0005,8 Z" id="Path" fill="#000000" opacity="0.1"></path>
            <path d="M23.9264444,10 L12,10 L12,38 L23.9264444,38 C25.0702193,37.996763 25.9965832,37.1191551 26,36.0355789 L26,11.9644211 C25.9965832,10.8808449 25.0702193,10.003237 23.9264444,10 Z" id="Path" fill="#000000" opacity="0.2"></path>
            <path d="M23.9264444,9 L12,9 L12,35 L23.9264444,35 C25.0702193,34.9966406 25.9965832,34.0858458 26,32.9612941 L26,11.0387059 C25.9965832,9.91415416 25.0702193,9.0033594 23.9264444,9 Z" id="Path" fill="#000000" opacity="0.2"></path>
            <path d="M22.0005,9 L12,9 L12,35 L22.0005,35 C23.1034257,34.9966406 23.9967052,34.0858458 24,32.9612941 L24,11.0387059 C23.9967052,9.91415416 23.1034257,9.0033594 22.0005,9 Z" id="Path" fill="#000000" opacity="0.2"></path>
            <rect id="Rectangle" fill="#107C41" x="0" y="8" width="23" height="24" rx="1.333"></rect>
            <path d="M5,29 L9.70359281,21.4783951 L5.39670659,14 L8.86676647,14 L11.2215569,18.7839506 C11.4371257,19.2376543 11.5868263,19.5756173 11.6706587,19.7993827 L11.7005988,19.7993827 C11.8562874,19.4372428 12.0189621,19.0848765 12.1886228,18.742284 L14.7050898,14.0046296 L17.8907186,14.0046296 L13.4640719,21.4382716 L18,29 L14.6107784,29 L11.8907186,23.7530864 C11.762525,23.5299235 11.6538144,23.295463 11.5658683,23.0524691 L11.5254491,23.0524691 C11.4455923,23.2906907 11.3401468,23.5189607 11.2110778,23.7330247 L8.41017964,29 L5,29 Z" id="Path" fill="#FFFFFF"></path>
        </g>
    </g>
</svg>