<?xml version="1.0" encoding="utf-8"?>
<!-- Generator: Adobe Illustrator 26.0.0, SVG Export Plug-In . SVG Version: 6.00 Build 0)  -->
<svg version="1.1" id="Layer_1" xmlns="http://www.w3.org/2000/svg" xmlns:xlink="http://www.w3.org/1999/xlink" x="0px" y="0px"
	 viewBox="0 0 400 400" style="enable-background:new 0 0 400 400;" xml:space="preserve">
<style type="text/css">
	.st0{fill:#DF2635;}
	.st1{fill:#FFFFFF;}
</style>
<path class="st0" d="M27.9,371.5h250.8c51.7,0,93.7-42,93.7-93.7V122.4c0-51.7-42-93.7-93.7-93.7H121.6c-51.7,0-93.7,42-93.7,93.7
	V371.5z"/>
<path class="st1" d="M133.7,112.7h78.1c22,0,39.3,6.5,50.5,17.5c9.3,9.5,14.5,22.5,14.5,37.8v0.5c0,28.8-17.3,46-41.5,53l47.3,66.3
	H246l-43-61.1h-38.5v61.1h-30.8V112.7z M209.5,199.5c22,0,36-11.5,36-29.3v-0.5c0-18.8-13.5-29-36.3-29h-44.8v58.8H209.5z"/>
</svg>
