<?xml version="1.0" encoding="utf-8"?>
<!-- Generator: Adobe Illustrator 25.2.3, SVG Export Plug-In . SVG Version: 6.00 Build 0)  -->
<svg version="1.1" id="Layer_1" xmlns="http://www.w3.org/2000/svg" xmlns:xlink="http://www.w3.org/1999/xlink" x="0px" y="0px"
	 viewBox="0 0 56 56" style="enable-background:new 0 0 56 56;" xml:space="preserve">
<style type="text/css">
	.st0{fill:#FFFFFF;stroke:#E7E7EA;}
	.st1{filter:url(#Adobe_OpacityMaskFilter);}
	.st2{fill-rule:evenodd;clip-rule:evenodd;fill:#FFFFFF;}
	.st3{mask:url(#b_1_);}
	.st4{fill:#2CA01C;}
	.st5{fill:#FFFFFF;}
</style>
<g>
	<path class="st0" d="M3,0.5C1.6,0.5,0.5,1.6,0.5,3v50c0,1.4,1.1,2.5,2.5,2.5h50.1c1.4,0,2.5-1.1,2.5-2.5V3c0-1.4-1.1-2.5-2.5-2.5H3
		z"/>
	<defs>
		<filter id="Adobe_OpacityMaskFilter" filterUnits="userSpaceOnUse" x="6.7" y="6.1" width="42.2" height="43.2">
			<feColorMatrix  type="matrix" values="1 0 0 0 0  0 1 0 0 0  0 0 1 0 0  0 0 0 1 0"/>
		</filter>
	</defs>
	<mask maskUnits="userSpaceOnUse" x="6.7" y="6.1" width="42.2" height="43.2" id="b_1_">
		<g class="st1">
			<path id="a_1_" class="st2" d="M3,0h50.1c1.7,0,3,1.3,3,3v50c0,1.7-1.3,3-3,3H3c-1.7,0-3-1.3-3-3V3C0,1.3,1.3,0,3,0z"/>
		</g>
	</mask>
	<g class="st3">
		<g transform="translate(6.5 6)">
			<ellipse class="st4" cx="21.3" cy="21.7" rx="21.1" ry="21.6"/>
			<path class="st5" d="M6,21.7c0,4.6,3.7,8.4,8.2,8.4h1.2V27h-1.2c-2.8,0-5.2-2.4-5.2-5.3c0-2.9,2.3-5.3,5.2-5.3h2.8v16.3
				c0,1.7,1.4,3.1,3,3.1V13.3h-5.9C9.7,13.3,6,17.1,6,21.7L6,21.7z M28.3,13.3h-1.2v3.1h1.2c2.8,0,5.2,2.4,5.2,5.3
				c0,2.9-2.3,5.3-5.2,5.3h-2.8V10.7c0-1.7-1.4-3.1-3-3.1v22.6h5.9c4.5,0,8.2-3.8,8.2-8.4C36.5,17.1,32.9,13.3,28.3,13.3L28.3,13.3z
				"/>
		</g>
	</g>
</g>
</svg>
