<?xml version="1.0" encoding="utf-8"?>
<!-- Generator: Adobe Illustrator 25.2.3, SVG Export Plug-In . SVG Version: 6.00 Build 0)  -->
<svg version="1.1" id="Layer_1" xmlns="http://www.w3.org/2000/svg" xmlns:xlink="http://www.w3.org/1999/xlink" x="0px" y="0px"
	 viewBox="0 0 56 56" style="enable-background:new 0 0 56 56;" xml:space="preserve">
<style type="text/css">
	.st0{fill:#E10A0A;stroke:#E10A0A;}
	.st1{filter:url(#Adobe_OpacityMaskFilter);}
	.st2{fill-rule:evenodd;clip-rule:evenodd;fill:#FFFFFF;}
	.st3{mask:url(#mask-2_1_);}
	.st4{filter:url(#Adobe_OpacityMaskFilter_1_);}
	.st5{mask:url(#mask-4_1_);fill-rule:evenodd;clip-rule:evenodd;fill:#FFFFFF;}
</style>
<g id="Symbols">
	<g id="Logos-_x2F_-Icon-_x2F_-Brand-icon">
		<path class="st0" d="M53.1,0.5c0.7,0,1.3,0.3,1.8,0.7s0.7,1.1,0.7,1.8l0,0v50c0,0.7-0.3,1.3-0.7,1.8c-0.5,0.5-1.1,0.7-1.8,0.7l0,0
			H3c-0.7,0-1.3-0.3-1.8-0.7c-0.5-0.5-0.7-1.1-0.7-1.8l0,0V3c0-0.7,0.3-1.3,0.7-1.8S2.3,0.5,3,0.5l0,0H53.1z"/>
		<defs>
			<filter id="Adobe_OpacityMaskFilter" filterUnits="userSpaceOnUse" x="7" y="9" width="42" height="37.9">
				<feColorMatrix  type="matrix" values="1 0 0 0 0  0 1 0 0 0  0 0 1 0 0  0 0 0 1 0"/>
			</filter>
		</defs>
		<mask maskUnits="userSpaceOnUse" x="7" y="9" width="42" height="37.9" id="mask-2_1_">
			<g class="st1">
				<path id="path-1_1_" class="st2" d="M3,0h50.1c1.7,0,3,1.3,3,3v50c0,1.7-1.3,3-3,3H3c-1.7,0-3-1.3-3-3V3C0,1.3,1.3,0,3,0z"/>
			</g>
		</mask>
		<g id="VM_MONOGRAM_RED_RGB" class="st3">
			<g transform="translate(7.000000, 9.000000)">
				<g id="Clip-2">
				</g>
				<defs>
					<filter id="Adobe_OpacityMaskFilter_1_" filterUnits="userSpaceOnUse" x="0" y="0" width="42" height="37.9">
						<feColorMatrix  type="matrix" values="1 0 0 0 0  0 1 0 0 0  0 0 1 0 0  0 0 0 1 0"/>
					</filter>
				</defs>
				<mask maskUnits="userSpaceOnUse" x="0" y="0" width="42" height="37.9" id="mask-4_1_">
					<g class="st4">
						<polygon id="path-3_1_" class="st2" points="0,0 42,0 42,37.8 0,37.8 						"/>
					</g>
				</mask>
				<path id="Fill-1" class="st5" d="M20.4,31c0,1.2-0.3,2.2-0.8,2.9c-0.5,0.7-1.2,1.1-2.1,1.1c-0.8,0-1.4-0.2-1.8-0.7
					c-0.4-0.4-0.6-1.1-0.6-1.9c0-0.7,0.1-1.4,0.4-2c0.3-0.6,0.7-1.5,1.4-2.6l3.6-5.6V31z M35.6,0.3c-2.6,0-4.8,1.4-6.6,4.2l-5.4,8.5
					c0-4-1.1-7.1-3.2-9.4c-2.1-2.3-5-3.5-8.6-3.5C8.2,0,5.3,1.2,3.2,3.5S0,9,0,13v24.1h3.4V13c0-3,0.8-5.4,2.3-7.2s3.6-2.6,6.2-2.6
					c2.6,0,4.7,0.9,6.2,2.6c1.5,1.8,2.3,4.2,2.3,7.2v4.4l-5.9,8.9c-1,1.4-1.6,2.6-2,3.6c-0.4,1-0.5,1.9-0.5,2.9
					c0,1.5,0.5,2.7,1.5,3.7c1,1,2.4,1.5,4.1,1.5c1.9,0,3.4-0.6,4.5-1.8c1.1-1.2,1.7-2.8,1.7-4.9V18.4l8-12.3
					c1.1-1.7,2.4-2.6,3.8-2.6c0.9,0,1.7,0.3,2.2,0.9C38.3,5,38.6,5.9,38.6,7v30.1H42V6.9c0-2-0.6-3.7-1.7-4.9S37.6,0.3,35.6,0.3
					L35.6,0.3z"/>
			</g>
		</g>
	</g>
</g>
</svg>
