<?xml version="1.0" encoding="utf-8"?>
<svg version="1.1" id="Layer_1"
    xmlns="http://www.w3.org/2000/svg"
    xmlns:xlink="http://www.w3.org/1999/xlink" x="0px" y="0px" viewBox="0 0 22 22" style="enable-background:new 0 0 22 22;" xml:space="preserve">
    <style type="text/css">
	.st0{fill:#5A5A5A;}
	.st1{fill:#228800;}
    </style>
    <g>
        <path class="st1" d="M9.7,5.6c0-2-1.2-3.7-3-4.5s-3.9-0.4-5.3,1s-1.8,3.5-1.1,5.3s2.5,3,4.5,3h4.9L9.7,5.6z M11.1,5.6
		c0-2,1.2-3.7,3-4.5s3.9-0.4,5.3,1s1.8,3.5,1.1,5.3s-2.5,3-4.5,3h-4.9L11.1,5.6z M11.1,16.6c0,2,1.2,3.7,3,4.5
		c1.8,0.8,3.9,0.4,5.3-1c1.4-1.4,1.8-3.5,1.1-5.3s-2.5-3-4.5-3h-4.9L11.1,16.6z M4.8,20.1c1.9,0,3.5-1.5,3.5-3.5v-3.5H4.8
		c-1.9,0-3.5,1.5-3.5,3.5S2.9,20.1,4.8,20.1z M9.7,16.6c0,2-1.2,3.7-3,4.5c-1.8,0.8-3.9,0.4-5.3-1c-1.4-1.4-1.8-3.5-1.1-5.3
		s2.5-3,4.5-3h4.9L9.7,16.6z"/>
    </g>
</svg>
