<?xml version="1.0" encoding="UTF-8"?>
<svg width="56px" height="56px" viewBox="0 0 56 56" version="1.1" xmlns="http://www.w3.org/2000/svg" xmlns:xlink="http://www.w3.org/1999/xlink">
    <title>Logos / Icon / Constant contact</title>
    <defs>
        <path d="M3,0 L53.0977312,0 C54.7545855,-3.04359188e-16 56.0977312,1.34314575 56.0977312,3 L56.0977312,53 C56.0977312,54.6568542 54.7545855,56 53.0977312,56 L3,56 C1.34314575,56 2.02906125e-16,54.6568542 0,53 L0,3 C-2.02906125e-16,1.34314575 1.34314575,3.04359188e-16 3,0 Z" id="path-1"></path>
    </defs>
    <g id="Logos-/-Icon-/-Constant-contact" stroke="none" stroke-width="1" fill="none" fill-rule="evenodd">
        <g id="app-icon-widget">
            <mask id="mask-2" fill="white">
                <use xlink:href="#path-1"></use>
            </mask>
            <path stroke="#E7E7EA" d="M53.0977312,0.5 C53.7880872,0.5 54.4130872,0.779822031 54.8654982,1.23223305 C55.3179092,1.68464406 55.5977312,2.30964406 55.5977312,3 L55.5977312,3 L55.5977312,53 C55.5977312,53.6903559 55.3179092,54.3153559 54.8654982,54.767767 C54.4130872,55.220178 53.7880872,55.5 53.0977312,55.5 L53.0977312,55.5 L3,55.5 C2.30964406,55.5 1.68464406,55.220178 1.23223305,54.767767 C0.779822031,54.3153559 0.5,53.6903559 0.5,53 L0.5,53 L0.5,3 C0.5,2.30964406 0.779822031,1.68464406 1.23223305,1.23223305 C1.68464406,0.779822031 2.30964406,0.5 3,0.5 L3,0.5 Z"></path>
        </g>
        <g id="Group" transform="translate(10.000000, 10.000000)">
            <path d="M22.9885404,14.7342393 C23.305187,15.6921565 24.1917973,16.2669067 25.2050663,16.2669067 C25.4583836,16.2669067 25.7117008,16.2030456 25.9650181,16.1391845 C27.168275,15.6921565 27.8015682,14.3510724 27.358263,13.1377107 C26.5983112,11.030293 25.0150784,9.36990328 22.7985525,8.34812498 C21.6586248,7.83723584 20.26538,8.34812498 19.6954162,9.49762556 C19.1887817,10.6471261 19.6954162,12.0520713 20.8353438,12.6268216 C21.9752714,13.1377107 22.6718938,13.8401833 22.9885404,14.7342393 Z" id="Path" fill="#FF9E1A"></path>
            <path d="M22.2285887,0.0461763651 C20.9620024,-0.209268208 19.7587455,0.620926654 19.5054282,1.89814952 C19.252111,3.17537238 20.075392,4.3887341 21.3419783,4.64417868 C26.5983112,5.66595697 30.1447527,9.24218099 31.0313631,14.4149336 C31.221351,15.5644342 32.23462,16.3307679 33.3112183,16.3307679 C33.437877,16.3307679 33.5645356,16.3307679 33.6911942,16.2669067 C34.9577805,16.0114622 35.7810615,14.7981004 35.5910736,13.5847387 C34.3878166,6.56001297 29.384801,1.45112152 22.2285887,0.0461763651 Z" id="Path" fill="#FF9E1A"></path>
            <path d="M16.3389626,23.4193548 C14.2490953,23.4193548 12.4758745,21.6951039 12.4758745,19.523825 C12.4758745,17.4164073 14.185766,15.6282953 16.3389626,15.6282953 C17.6055489,15.6282953 18.6821472,14.606517 18.6821472,13.265433 C18.6821472,11.924349 17.6688782,10.9025707 16.3389626,10.9025707 C11.6525935,10.9025707 7.85283474,14.7342393 7.85283474,19.4599639 C7.85283474,24.1856885 11.6525935,28.0173571 16.3389626,28.0173571 C21.0253317,28.0173571 24.8250905,24.1856885 24.8250905,19.4599639 C24.8250905,18.182741 23.8118215,17.0971016 22.4819059,17.0971016 C21.2153197,17.0971016 20.1387214,18.1188799 20.1387214,19.4599639 C20.2020507,21.6951039 18.4288299,23.4193548 16.3389626,23.4193548 Z" id="Path" fill="#1856ED"></path>
            <path d="M30.3347407,17.2248239 C29.0681544,17.2248239 27.9915561,18.2466022 27.9915561,19.5876862 C27.9915561,26.1015228 22.7352232,31.4019977 16.2756333,31.4019977 C9.81604343,31.4019977 4.55971049,26.1015228 4.55971049,19.5876862 C4.55971049,13.0738496 9.81604343,7.7733747 16.2756333,7.7733747 C17.5422195,7.7733747 18.6188179,6.7515964 18.6188179,5.4105124 C18.6188179,4.13328953 17.6055489,3.0476501 16.2756333,3.0476501 C7.34620024,3.0476501 0,10.4555427 0,19.523825 C0,28.5921074 7.34620024,36 16.3389626,36 C25.331725,36 32.6779252,28.5921074 32.6779252,19.523825 C32.6779252,18.2466022 31.6646562,17.2248239 30.3347407,17.2248239 Z" id="Path" fill="#1856ED"></path>
        </g>
    </g>
</svg>