<?xml version="1.0" encoding="utf-8"?>
<!-- Generator: Adobe Illustrator 19.0.0, SVG Export Plug-In . SVG Version: 6.00 Build 0)  -->
<svg version="1.1" id="Layer_1" xmlns="http://www.w3.org/2000/svg" xmlns:xlink="http://www.w3.org/1999/xlink" x="0px" y="0px"
	 viewBox="0 0 256 256" style="enable-background:new 0 0 256 256;" xml:space="preserve">
<style type="text/css">
	.st0{fill:#131F6B;}
	.st1{fill:#FFFFFF;}
	.st2{fill:#009482;}
</style>
<g>
	<g>
		<path class="st0" d="M66,169.6c-0.5,0-1.1,0-1.6,0c-11.2-0.4-21.6-5.2-29.2-13.4c-5.8-6.2-9.5-14-10.7-22.3
			c-0.5-3.5,1.9-6.8,5.4-7.3c3.5-0.5,6.8,1.9,7.3,5.4c0.9,5.8,3.4,11.2,7.4,15.5c5.3,5.7,12.5,9,20.3,9.3c7.8,0.3,15.2-2.5,20.9-7.7
			c2.6-2.4,6.7-2.3,9.1,0.3c2.4,2.6,2.3,6.7-0.3,9.1C86.7,165.6,76.6,169.6,66,169.6z"/>
		<g>
			<path class="st0" d="M12.6,121.5l1.4-20.4c0.1-2,1.8-3.4,3.8-3.3c2,0.1,3.4,1.8,3.3,3.8l-1.3,19.3l3,4.9c1.3-1.6,3.2-2.7,5.3-3.2
				c2.2-0.5,4.3-0.2,6.2,0.7l0.6-5.7l-9.3-17c-0.9-1.7-0.3-3.9,1.4-4.8c1.7-1,3.9-0.3,4.8,1.4l9.8,17.9c0.4,0.6,0.5,1.4,0.4,2.1
				l-1.7,15.2l0.3,1.5c1.2,5.3-2.2,10.6-7.5,11.8c-5.3,1.2-10.6-2.2-11.8-7.5l-0.3-1.5l-7.9-13.1C12.8,123,12.6,122.3,12.6,121.5z"
				/>
			<circle class="st1" cx="31.1" cy="136.5" r="4.6"/>
		</g>
	</g>
	<path class="st2" d="M84.3,183.1c11,4.9,25.3,5.6,35.6,2l-22.7-62.3c-10.2,3.9-20.7,13.6-26,24.4L84.3,183.1z"/>
	<g>
		<path class="st0" d="M231.8,199.2c-0.7,0-1.3-0.1-2-0.3c-3.4-1.1-5.2-4.8-4.1-8.1c1.8-5.6,1.9-11.5,0.3-17.2
			c-4.5-15.5-20.7-24.4-36.1-19.9c-3.4,1-7-1-8-4.4c-1-3.4,1-7,4.4-8c22.3-6.4,45.6,6.5,52,28.7c2.4,8.2,2.2,16.7-0.5,24.8
			C237,197.5,234.5,199.2,231.8,199.2z"/>
		<g>
			<path class="st0" d="M242.9,210.9l-10.4,17.6c-1,1.7-3.2,2.3-4.9,1.3c-1.7-1-2.2-3.2-1.3-4.9l9.8-16.6l-0.4-5.8
				c-1.9,0.8-4.1,1-6.2,0.5c-2.1-0.5-3.9-1.8-5.2-3.4l-3.1,4.8l0.7,19.3c0.1,2-1.5,3.6-3.4,3.7c-2,0.1-3.6-1.5-3.7-3.4l-0.7-20.4
				c0-0.7,0.2-1.4,0.6-2.1l8.3-12.9l0.4-1.5c1.3-5.3,6.8-8.5,12-7.1c5.3,1.3,8.5,6.8,7.1,12l-0.4,1.5l1.2,15.3
				C243.4,209.6,243.3,210.3,242.9,210.9z"/>
			<circle class="st1" cx="233.1" cy="189.3" r="4.6"/>
		</g>
	</g>
	<path class="st2" d="M151,253C151,253,151,253,151,253c18.9,0,30.1-1.8,36.4-33.4c3.6-18.2,5.7-11,7.5-29.4
		c2.3-19.5-17.5-43.7-43.9-43.7l0,0c-26.4,0-46.2,24.2-43.9,43.7c1.8,18.5,3.5,13.3,7.5,31.5C121.4,252.3,132.1,253,151,253z"/>
	<path class="st2" d="M217,183.1c-11,4.9-25.3,5.6-35.6,2l22.7-62.3c10.2,3.9,20.7,13.6,26,24.4L217,183.1z"/>
	<path class="st2" d="M151.3,241C151.3,241,151.3,241,151.3,241c31.6,0,50.4-3.1,60.8-57.5c6-31.4,2.8-10.5,11.3-52
		c6.8-33.1-13.8-73.9-72.1-73.9c0,0,0,0,0,0c-59,0-80.5,42.2-73.5,75.2c7.9,36.8,5.9,23,12.6,54.2C101.9,239.9,119.7,241,151.3,241z
		"/>
	<path class="st1" d="M112.1,93.9c6.9-1.7,13.8-2.9,20.7-3.8c0.4,0.5,0.7,1.1,1.1,1.6c4.8,6.2,11.6,10,19.4,10
		c8,0,14.8-3.9,19.6-10.1c0.3-0.4,0.6-0.9,0.9-1.3c6.2,0.8,12.4,1.9,18.5,3.4c14.1,3.4,22.2,18.5,18.4,30.9c0,0,0,0,0,0
		c-3.8,12.5-16,17.8-26.9,20c-26.4,5.3-44.8,4-61.3,0c-13.8-3.3-25.7-9.2-28.8-19.7c0,0,0,0,0,0C90,112.5,98,97.3,112.1,93.9z"/>
	<g>
		<polygon class="st2" points="138.3,72.9 146.2,40.4 133.9,48.5 146.7,22.1 156,3 152.3,29.3 163.7,24.7 163.1,73.1 		"/>
		<ellipse class="st2" cx="153.3" cy="70.8" rx="26.7" ry="21.7"/>
	</g>
	<circle class="st0" cx="177.6" cy="119.6" r="10"/>
	<circle class="st1" cx="177.6" cy="129.9" r="10"/>
	<circle class="st0" cx="125.9" cy="118.9" r="10"/>
	<path class="st1" d="M142.9,175.9c-3.8-2.2-6.4-6.2-6.4-10.9h25.1c0,4.9-2.8,9.1-6.9,11.1l5.6,25.8l-12.5,16.5l-11.9-15.8
		L142.9,175.9z"/>
	<circle class="st1" cx="125.5" cy="128.8" r="10"/>
</g>
</svg>
