<svg width="56" height="56" viewBox="0 0 56 56" fill="none" xmlns="http://www.w3.org/2000/svg">
<rect width="56" height="56" rx="4" fill="#F7F7F7"/>
<path fill-rule="evenodd" clip-rule="evenodd" d="M42.602 10.5605H36.1447C34.5745 10.5718 33.3101 11.8724 33.3206 13.4662C33.3206 13.4802 33.3206 13.4936 33.3212 13.5071V46.5195H42.602C44.1721 46.5201 45.446 45.2279 45.446 43.6341C45.446 43.6133 45.446 43.5931 45.4454 43.573V13.5071C45.4781 11.9133 44.2319 10.5947 42.6618 10.5611C42.6419 10.5605 42.6219 10.5605 42.602 10.5605" fill="#F57C00"/>
<path fill-rule="evenodd" clip-rule="evenodd" d="M21.1766 24.7317V34.2127H12.7842C11.2467 34.2127 10 35.478 10 37.0387V43.5731C10.01 45.1361 11.2445 46.407 12.7842 46.4395H33.3208V21.9052H23.9807C22.4433 21.8945 21.1877 23.1508 21.1766 24.7116V24.7317Z" fill="#FFC107"/>
<path fill-rule="evenodd" clip-rule="evenodd" d="M33.3208 46.5194H36.1255H42.6022C44.1723 46.52 45.4462 45.2278 45.4462 43.634V43.634C45.4462 43.6138 45.4462 43.5931 45.4456 43.5729V43.5729V34.2528L33.3208 21.9257V46.5194Z" fill="black" fill-opacity="0.05"/>
<path fill-rule="evenodd" clip-rule="evenodd" d="M24.0006 22.146H33.3013V21.9055H24.0006C22.4631 21.8837 21.1987 23.1305 21.1771 24.6917C21.1765 24.7046 21.1765 24.7181 21.1765 24.7315V24.9726C21.1765 23.4113 22.4227 22.146 23.9607 22.146C23.974 22.146 23.9873 22.146 24.0006 22.146" fill="white"/>
<path fill-rule="evenodd" clip-rule="evenodd" d="M12.7844 34.4531H21.1769V34.2126H12.7844C11.247 34.2126 10.0002 35.4779 10.0002 37.0386V37.2797C10.0002 35.7184 11.247 34.4531 12.7844 34.4531" fill="white"/>
<path fill-rule="evenodd" clip-rule="evenodd" d="M42.602 10.5605H36.1447C34.5745 10.5718 33.3101 11.8724 33.3206 13.4662C33.3206 13.4802 33.3206 13.4936 33.3212 13.5071V13.7476C33.3212 12.1538 34.5945 10.8616 36.1646 10.8616H42.602C44.1721 10.8616 45.4454 12.1538 45.4454 13.7476V13.5071C45.4781 11.9133 44.2319 10.5947 42.6618 10.5611C42.6419 10.5605 42.6219 10.5605 42.602 10.5605" fill="white"/>
<path fill-rule="evenodd" clip-rule="evenodd" d="M42.6217 46.2792H12.8043C11.274 46.2792 10.0306 45.0262 10.0195 43.4728V43.7133C10.0195 45.274 11.2662 46.5398 12.8043 46.5398H42.6217C44.1918 46.5292 45.4568 45.2286 45.4469 43.6342C45.4463 43.614 45.4463 43.5933 45.4457 43.5731V43.4128C45.4347 44.9909 44.1769 46.2679 42.6217 46.2792" fill="#BF360C"/>
</svg>
