<?xml version="1.0" encoding="UTF-8"?>
<svg width="56px" height="56px" viewBox="0 0 56 56" version="1.1" xmlns="http://www.w3.org/2000/svg" xmlns:xlink="http://www.w3.org/1999/xlink">
    <!-- Generator: Sketch 56 (81588) - https://sketch.com -->
    <title>Components/App Logos / Icons  / Shopify</title>
    <desc>Created with Sketch.</desc>
    <defs>
        <path d="M30.515575,14.1093248 L30.515575,13.6913183 C30.515575,12.437299 30.3556113,11.4083601 30.0676765,10.5723473 C31.2194154,10.7009646 31.9552485,12.0192926 32.4351397,13.4983923 C31.8592703,13.6913183 31.2194154,13.8842444 30.515575,14.1093248 L30.515575,14.1093248 Z M28.0201408,26.8424437 C28.0201408,26.8424437 26.6764455,26.1350482 25.0768082,26.1350482 C22.6773522,26.1350482 22.581374,27.6463023 22.581374,28.0321543 C22.581374,30.0900322 27.9561553,30.8938907 27.9561553,35.7491961 C27.9561553,39.5755627 25.5566994,42.0192926 22.2934393,42.0192926 C18.3903243,42.0192926 16.4067741,39.5755627 16.4067741,39.5755627 L17.4625347,36.1028939 C17.4625347,36.1028939 19.5100704,37.8713826 21.2376787,37.8713826 C22.3574248,37.8713826 22.837316,36.9713826 22.837316,36.3282958 C22.837316,33.6270096 18.422317,33.4983923 18.422317,29.0610932 C18.422317,25.3311897 21.077715,21.6977492 26.484489,21.6977492 C28.5640175,21.6977492 29.5877854,22.3086817 29.5877854,22.3086817 L28.0201408,26.8424437 Z M27.1243439,9.38263666 C27.3482931,9.38263666 27.5722424,9.44694534 27.7961916,9.60771704 C26.1645615,10.3794212 24.3729678,12.340836 23.6371346,16.2636656 C22.5493813,16.6173633 21.4936206,16.9389068 20.5018455,17.2282958 C21.3656497,14.2379421 23.4451781,9.38263666 27.1243439,9.38263666 L27.1243439,9.38263666 Z M29.1718797,14.3022508 L29.1718797,14.5273312 C27.9241626,14.9131833 26.5484745,15.3311897 25.2047792,15.7491961 C25.9726051,12.7909968 27.4122786,11.3440514 28.6599957,10.7974277 C28.9799232,11.6334405 29.1718797,12.7588424 29.1718797,14.3022508 L29.1718797,14.3022508 Z M34.8985812,12.7588424 C34.9305739,12.7588424 34.9945594,12.7266881 35.0265522,12.7266881 L33.4909003,48 L11,43.755627 C11,43.755627 13.9113399,21.0868167 14.0393109,20.3151125 C14.1672818,19.2540193 14.1992746,19.221865 15.3190207,18.8681672 C15.4789844,18.8038585 16.918658,18.3536977 18.9022082,17.7427653 C19.6700341,14.4630225 22.1334756,8 27.2843076,8 C27.9561553,8 28.7239812,8.35369775 29.3638361,9.15755627 L29.5557926,9.15755627 C31.7632921,9.15755627 33.0110092,11.0546624 33.7148496,13.1125402 C34.41869,12.8874598 34.8665884,12.7588424 34.8985812,12.7588424 Z M41.6489866,15.8136013 C41.6809793,16.0065273 46,45.3634405 46,45.3634405 L34.034713,47.9679421 L35.5383721,12.7910932 C35.6023576,12.8232476 35.6663431,12.8554019 35.7303286,12.9197106 C35.9862705,13.144791 38.0977918,15.2669775 38.0977918,15.2669775 C38.0977918,15.2669775 41.1371026,15.4920579 41.2970664,15.4920579 C41.4570301,15.4920579 41.6169938,15.6206752 41.6489866,15.8136013 Z" id="path-1"></path>
    </defs>
    <g id="Components/App-Logos-/-Icons--/-Shopify" stroke="none" stroke-width="1" fill="none" fill-rule="evenodd">
        <g id="Fill-1-+-Fill-3-Mask">
            <path d="M3,0 L53.0977312,0 C54.7545855,-3.04359188e-16 56.0977312,1.34314575 56.0977312,3 L56.0977312,53 C56.0977312,54.6568542 54.7545855,56 53.0977312,56 L3,56 C1.34314575,56 3.8818616e-15,54.6568542 0,53 L0,3 C-2.02906125e-16,1.34314575 1.34314575,3.04359188e-16 3,0 Z" id="Mask" fill="#81BF36"></path>
            <mask id="mask-2" fill="white">
                <use xlink:href="#path-1"></use>
            </mask>
            <use id="Fill-3" fill="#FFFFFF" xlink:href="#path-1"></use>
        </g>
    </g>
</svg>