<?xml version="1.0" encoding="UTF-8"?>
<svg width="56px" height="56px" viewBox="0 0 56 56" version="1.1" xmlns="http://www.w3.org/2000/svg" xmlns:xlink="http://www.w3.org/1999/xlink">
    <title>1605E3B4-1D3A-4482-842A-08859497002F@2x</title>
    <defs>
        <path d="M3,0 L53.0977312,0 C54.7545855,-3.04359188e-16 56.0977312,1.34314575 56.0977312,3 L56.0977312,53 C56.0977312,54.6568542 54.7545855,56 53.0977312,56 L3,56 C1.34314575,56 2.02906125e-16,54.6568542 0,53 L0,3 C-2.02906125e-16,1.34314575 1.34314575,3.04359188e-16 3,0 Z" id="path-1"></path>
        <linearGradient x1="5.50132063%" y1="-2.49398882%" x2="92.0163198%" y2="99.5635194%" id="linearGradient-3">
            <stop stop-color="#F8C51B" offset="0.5998609%"></stop>
            <stop stop-color="#E78F24" offset="100%"></stop>
        </linearGradient>
        <linearGradient x1="3.14369349%" y1="12.7373841%" x2="95.5999704%" y2="86.2506793%" id="linearGradient-4">
            <stop stop-color="#1F8ACA" offset="0.5618%"></stop>
            <stop stop-color="#01659E" offset="100%"></stop>
        </linearGradient>
        <linearGradient x1="49.998313%" y1="27.7746793%" x2="49.998313%" y2="97.5374258%" id="linearGradient-5">
            <stop stop-color="#269F49" offset="0%"></stop>
            <stop stop-color="#008A54" offset="100%"></stop>
        </linearGradient>
        <linearGradient x1="43.7047423%" y1="9.82144776%" x2="57.5066804%" y2="91.5001157%" id="linearGradient-6">
            <stop stop-color="#D81F32" offset="0%"></stop>
            <stop stop-color="#BB2637" offset="100%"></stop>
        </linearGradient>
    </defs>
    <g id="Symbols" stroke="none" stroke-width="1" fill="none" fill-rule="evenodd">
        <g id="Logos-/-Icon-/-Zoho">
            <g id="app-icon-widget">
                <mask id="mask-2" fill="white">
                    <use xlink:href="#path-1"></use>
                </mask>
                <path stroke="#E7E7EA" d="M53.0977312,0.5 C53.7880872,0.5 54.4130872,0.779822031 54.8654982,1.23223305 C55.3179092,1.68464406 55.5977312,2.30964406 55.5977312,3 L55.5977312,3 L55.5977312,53 C55.5977312,53.6903559 55.3179092,54.3153559 54.8654982,54.767767 C54.4130872,55.220178 53.7880872,55.5 53.0977312,55.5 L53.0977312,55.5 L3,55.5 C2.30964406,55.5 1.68464406,55.220178 1.23223305,54.767767 C0.779822031,54.3153559 0.5,53.6903559 0.5,53 L0.5,53 L0.5,3 C0.5,2.30964406 0.779822031,1.68464406 1.23223305,1.23223305 C1.68464406,0.779822031 2.30964406,0.5 3,0.5 L3,0.5 Z"></path>
            </g>
            <g id="zoho-logo-01" transform="translate(3.000000, 19.000000)" fill-rule="nonzero">
                <g id="Group" transform="translate(37.871997, 3.760340)">
                    <polygon id="Path" fill="#DC7E28" points="12.5443156 0.00626723353 12.5443156 11.9480331 10.9219974 13.5712465 10.9219974 1.87927474"></polygon>
                    <rect id="Rectangle" fill="url(#linearGradient-3)" x="0.00268595723" y="1.87927474" width="10.9193114" height="11.6919718"></rect>
                    <polygon id="Path" fill="#FDD600" points="1.71364071 0.0143251052 0.00268595723 1.87927474 10.9219974 1.87927474 12.5443156 0.00626723353"></polygon>
                </g>
                <polygon id="Path" fill="#90C7EA" points="26.061843 4.28678773 36.8020906 2.79429083 35.9040856 5.3692285 25.3106703 6.81427348"></polygon>
                <polygon id="Path" fill="url(#linearGradient-4)" points="35.9040856 5.3692285 37.3921059 15.8435664 26.8013765 17.3315867 25.3106703 6.81427348"></polygon>
                <polyline id="Path" fill="#0B98D5" points="35.9040856 5.3692285 37.3921059 15.8435664 38.203265 13.5828857 36.8110438 2.85696317 36.8020906 2.79429083"></polyline>
                <polygon id="Path" fill="url(#linearGradient-5)" points="16.9904701 3.3932593 26.4987587 7.68362831 22.2083897 17.4238045 12.7001011 13.1343308"></polygon>
                <polygon id="Path" fill="#95CEA0" points="16.0029332 0.0599863781 16.9904701 3.3932593 26.4987587 7.68362831 25.6992387 4.49808304"></polygon>
                <polygon id="Path" fill="#69BF6D" points="16.0029332 0.0599863781 12.1763394 9.14210308 12.7001011 13.1343308 16.9904701 3.3932593"></polygon>
                <polygon id="Path" fill="url(#linearGradient-6)" points="10.6981676 5.35400807 12.2658713 15.6609213 1.75751135 17.3092037 0.0698348879 6.98169815"></polygon>
                <polygon id="Path" fill="#761216" points="11.4180042 1.60083051 12.9731734 12.0071241 12.2658713 15.6609213 10.6981676 5.35400807"></polygon>
                <path d="M47.1278055,9.84582387 C46.9120336,9.30326051 46.5915094,8.81620694 46.1689188,8.38645378 C45.7642345,7.97371169 45.3085171,7.66214065 44.8062431,7.45263598 C44.3030738,7.24313132 43.7596151,7.13927431 43.1749718,7.13927431 C42.5867471,7.13927431 42.0379166,7.24313132 41.531166,7.45263598 C41.0244154,7.66214065 40.5695933,7.97371169 40.1684903,8.38645378 C39.7458997,8.81173034 39.4271661,9.29699328 39.2158708,9.83955664 C39.0045755,10.3830153 38.8989279,10.9748212 38.8989279,11.6158697 C38.8989279,12.2488603 39.0054708,12.8388755 39.2194521,13.3859155 C39.432538,13.9329555 39.749481,14.4235903 40.1684903,14.8569247 C40.5606401,15.2625043 41.0109856,15.5687034 41.5150502,15.7764174 C42.0200102,15.9832361 42.5733174,16.0870931 43.1749718,16.0870931 C43.7542432,16.0870931 44.2977019,15.9832361 44.8017665,15.7764174 C45.3067265,15.5695987 45.7624439,15.2633996 46.1680235,14.8578201 C46.5915094,14.4235903 46.9111383,13.9347461 47.1269102,13.3894968 C47.3435774,12.8451428 47.4510212,12.2533369 47.4510212,11.6158697 C47.451911,10.9792978 47.3435774,10.3892826 47.1278055,9.84582387 Z M44.8832406,13.6983819 C44.4651266,14.2042371 43.9019709,14.4549265 43.1740765,14.4558218 C42.4417055,14.4549265 41.8758638,14.2051325 41.4559592,13.7019631 C41.0369498,13.1987938 40.8238639,12.5067122 40.8238639,11.6176603 C40.8238639,10.7124927 41.0360545,10.0096673 41.4523779,9.50291667 C41.8704919,8.99616607 42.4381242,8.74368609 43.1740765,8.74279077 C43.9010756,8.74368609 44.4642312,8.99527075 44.8832406,9.50291667 C45.3004593,10.0105626 45.5126499,10.7124927 45.5126499,11.6176603 C45.5126499,12.5022356 45.3013546,13.1934219 44.8832406,13.6983819 Z M9.5700656,14.0198014 C9.48680092,13.920421 9.37578136,13.8479001 9.23969286,13.8004482 C9.10002308,13.7512057 8.93080778,13.7279274 8.73204694,13.7279274 C8.54492526,13.7279274 8.33004868,13.7485197 8.08831253,13.7905997 L5.31461403,14.2642235 C5.34415956,14.0502423 5.44980721,13.7700074 5.6369289,13.4271002 C5.84553824,13.0439036 6.15442333,12.5828143 6.56089819,12.0465182 L6.56089819,12.0465182 C6.70056796,11.8593965 6.80711093,11.7170407 6.88142241,11.6185556 C6.93424624,11.5531974 7.00855772,11.4565029 7.10346155,11.3284723 C7.73824277,10.4958255 8.13039253,9.81806898 8.28080613,9.28624945 C8.36675676,8.98452692 8.41958059,8.68101376 8.43838229,8.37481463 C8.4437542,8.29065464 8.44554484,8.20828528 8.44554484,8.12502061 C8.44554484,7.90566744 8.42763846,7.68989554 8.39093038,7.4768096 C8.35780357,7.28342068 8.31035166,7.12226325 8.24588869,6.99244198 C8.18232103,6.86351603 8.100847,6.76503093 8.00057126,6.70325392 C7.88776106,6.63431435 7.72839426,6.60566414 7.52068023,6.60476882 C7.34877897,6.60476882 7.14285558,6.62536116 6.90201475,6.66654584 L3.69677246,7.21537643 C3.30820398,7.28163004 3.02170188,7.39623088 2.83905679,7.56813215 C2.6940151,7.70422065 2.6188083,7.88149382 2.61969571,8.08383593 C2.61969571,8.13665976 2.62418021,8.19127422 2.63402872,8.24857464 C2.67879467,8.52075164 2.82115041,8.7204078 3.04945677,8.82247417 C3.18464995,8.88335587 3.34759802,8.9129014 3.53830099,8.9129014 C3.66812225,8.9129014 3.81047799,8.89947161 3.9662635,8.87261204 L6.64863946,8.42047591 C6.65311605,8.46792782 6.65669733,8.51537973 6.65669733,8.56193632 C6.65669733,8.72936099 6.62804712,8.89320438 6.56985138,9.05436181 C6.49016798,9.27640094 6.29140714,9.59334389 5.97446419,9.9971328 C5.88493228,10.107257 5.74705315,10.2791583 5.5617221,10.5119413 C4.83830428,11.3884586 4.31991454,12.1351548 4.00655286,12.7574015 C4.00655286,12.7574015 4.00655286,12.7574015 4.00655286,12.7582968 L4.00655286,12.7582968 C3.78361841,13.1862593 3.62962353,13.6079546 3.54456822,14.0224874 C3.49532567,14.2642235 3.47025674,14.4970065 3.47025674,14.7199409 C3.47025674,14.8793077 3.4827912,15.0341979 3.50875546,15.1837162 C3.54546354,15.3985928 3.59828736,15.5749706 3.66991289,15.7155357 C3.74153842,15.8552055 3.83196564,15.9590625 3.94477585,16.0208395 C4.04952818,16.0772446 4.20262774,16.0996276 4.41481836,16.1005229 C4.68341408,16.1005229 5.04512299,16.0611289 5.50263104,15.9832361 L8.4106274,15.486334 C8.92543586,15.3976975 9.28356349,15.2750387 9.49217284,15.1040328 C9.65870219,14.967049 9.74465282,14.7799273 9.74376442,14.5587835 C9.74376442,14.5032737 9.73838558,14.445078 9.72853708,14.3850916 C9.7061541,14.2418405 9.65243495,14.1191818 9.5700656,14.0198014 Z M22.7599062,7.054219 C22.3865582,6.6602786 21.9326314,6.3504982 21.3999165,6.1248778 C20.8716783,5.90015271 20.3371728,5.78823782 19.799086,5.78823782 L19.7740171,5.78823782 C19.2278725,5.7918191 18.6870997,5.91358249 18.1552802,6.15263269 L18.1552802,6.15263269 C17.5983917,6.39526416 17.1122335,6.73459009 16.7003867,7.17061048 C16.2885399,7.60663087 15.9527953,8.13039253 15.6940481,8.74100013 C15.4388821,9.34444519 15.2965264,9.94789025 15.2705622,10.5513353 C15.2678762,10.6193796 15.2660856,10.6883191 15.2660856,10.7563634 C15.2660856,11.2890782 15.3574081,11.8110492 15.5400532,12.3204858 C15.7334421,12.8585726 16.0190489,13.3250338 16.3959782,13.7171836 C16.7720122,14.1102286 17.2357875,14.422695 17.7828275,14.6545826 L17.7828275,14.6545826 C18.3065891,14.8775171 18.839304,14.9885366 19.3782861,14.9885366 L19.3917159,14.9885366 C19.9351745,14.9858507 20.4741566,14.8694592 21.0077668,14.6402575 L21.0086621,14.6402575 L21.0086621,14.6402575 C21.5691318,14.3904635 22.0579761,14.0457657 22.4751948,13.6106406 C22.8915181,13.1746202 23.2290534,12.6526492 23.4869053,12.0456228 C23.7447572,11.4385965 23.884427,10.8342561 23.9077053,10.233497 C23.9094959,10.1753013 23.9112866,10.1180009 23.9112866,10.0598051 C23.9112866,9.51903241 23.8154874,8.98989884 23.6247844,8.47150909 C23.421547,7.92088786 23.1332543,7.44815939 22.7599062,7.054219 Z M21.7186501,11.2971361 C21.3605225,12.141422 20.887794,12.7197981 20.3022554,13.0403223 C19.9888937,13.2122236 19.6674741,13.2972789 19.3344154,13.2972789 C19.0452274,13.2972789 18.7479814,13.2328159 18.4399917,13.1029947 C17.7747696,12.8191785 17.3602369,12.3634611 17.1802777,11.720622 C17.1202914,11.5048501 17.0898505,11.2783344 17.0898505,11.0392842 C17.0898505,10.567451 17.2080326,10.0490613 17.4470828,9.48590561 C17.8132683,8.6219227 18.2913687,8.03280275 18.8778027,7.70959256 C19.1902691,7.53679598 19.5125839,7.45174067 19.8456426,7.45174067 C20.1375166,7.45174067 20.4392392,7.51709896 20.7517055,7.64960618 C21.4133463,7.93073637 21.8234025,8.38824442 21.9997803,9.03376947 C22.0570807,9.24506477 22.0857359,9.4671039 22.0857359,9.7016775 C22.0866263,10.1833592 21.9648629,10.7151787 21.7186501,11.2971361 Z M34.1027036,7.37563854 C34.0552517,7.05063772 33.9442321,6.80173902 33.7633777,6.63968626 C33.6201266,6.509865 33.4401675,6.44450671 33.2351394,6.44450671 C33.1823156,6.44450671 33.1285964,6.4489833 33.0730867,6.45704117 C32.7982237,6.49643521 32.5878237,6.62357052 32.4588978,6.8339705 C32.3648893,6.98617475 32.319228,7.16881984 32.319228,7.38011514 C32.319228,7.46069386 32.3263905,7.54574917 32.338925,7.63528108 L32.7257028,10.3606323 L29.6807227,10.8091872 L29.2948402,8.08294061 C29.2482836,7.76599766 29.1381593,7.52068023 28.9608861,7.35325557 C28.8176351,7.21806239 28.6385713,7.1482275 28.4371245,7.14912282 C28.3896726,7.14912282 28.34043,7.15270409 28.2902921,7.15986665 C28.00379,7.20105132 27.7853322,7.326396 27.652825,7.5332147 C27.5570258,7.68273299 27.5104692,7.8662734 27.5104692,8.08025466 C27.5104692,8.16262401 27.5176318,8.24946996 27.5310616,8.34079251 L28.573213,15.4290336 C28.6206649,15.7549298 28.7352657,16.0029332 28.9223874,16.1623 C29.0683244,16.2876446 29.2518648,16.350317 29.4613695,16.3494311 C29.5186699,16.3494311 29.5786563,16.344945 29.639538,16.3359919 C29.9018665,16.2983885 30.1042086,16.1712531 30.225972,15.9608532 C30.3137133,15.8113349 30.3557933,15.6322711 30.3557933,15.427243 C30.3557933,15.3448736 30.349526,15.258923 30.3360962,15.1684958 L29.9108197,12.3679377 L32.9557999,11.9202782 L33.3819717,14.7208362 C33.4285283,15.0422558 33.5413385,15.2884685 33.7266696,15.4505213 C33.8735019,15.5794472 34.0543564,15.6448055 34.2602797,15.6439102 C34.3131036,15.6439102 34.3668227,15.6403289 34.4232278,15.6313757 C34.6971955,15.5910864 34.9067001,15.4657417 35.0320448,15.2571324 C35.122472,15.1085094 35.1654473,14.9276549 35.1654473,14.7199409 C35.1654473,14.6375716 35.1591801,14.5507256 35.1457503,14.4602984 L34.1027036,7.37563854 Z" id="Shape" fill="#FFFFFF"></path>
                <polygon id="Path" fill="#EC473F" points="0.0698348879 6.98169815 0.277548913 5.94402334 0.807577806 3.30104143 11.4180042 1.60083051 10.6981676 5.35400807"></polygon>
            </g>
            <rect id="State" fill="#F8F8F8" opacity="0" x="0" y="0" width="56" height="56"></rect>
        </g>
    </g>
</svg>