<?xml version="1.0" encoding="utf-8"?>
<!-- Generator: Adobe Illustrator 26.0.0, SVG Export Plug-In . SVG Version: 6.00 Build 0)  -->
<svg version="1.1" id="Layer_1" xmlns="http://www.w3.org/2000/svg" xmlns:xlink="http://www.w3.org/1999/xlink" x="0px" y="0px"
	 viewBox="0 0 400 400" style="enable-background:new 0 0 400 400;" xml:space="preserve">
<style type="text/css">
	.st0{fill-rule:evenodd;clip-rule:evenodd;fill:#E50065;}
</style>
<g>
	<path class="st0" d="M229.7,159.5c0,0-173-119.3-183.2,76.5c0,0-28.4-81.6,32.4-132.8c0,0,66.9-60.7,166.7,1.6l11-36.5L329.6,178
		l-113.4,16.2C216.2,194.2,226.1,173.5,229.7,159.5"/>
	<path class="st0" d="M170.3,240.5c0,0,173,119.3,183.2-76.5c0,0,28.4,81.6-32.4,132.8c0,0-66.9,60.7-166.7-1.6l-11,36.5L70.4,222
		l113.4-16.2C183.8,205.8,173.9,226.5,170.3,240.5"/>
</g>
</svg>
