<?xml version="1.0" encoding="UTF-8"?>
<svg width="56px" height="56px" viewBox="0 0 56 56" version="1.1" xmlns="http://www.w3.org/2000/svg" xmlns:xlink="http://www.w3.org/1999/xlink">
    <title>2AC79989-45C2-4A7C-ADA8-2F21F4A1529C@2x</title>
    <defs>
        <path d="M3,0 L53.0977312,0 C54.7545855,-3.04359188e-16 56.0977312,1.34314575 56.0977312,3 L56.0977312,53 C56.0977312,54.6568542 54.7545855,56 53.0977312,56 L3,56 C1.34314575,56 2.02906125e-16,54.6568542 0,53 L0,3 C-2.02906125e-16,1.34314575 1.34314575,3.04359188e-16 3,0 Z" id="path-1"></path>
        <polygon id="path-3" points="0 0.194469596 41.1871296 0.194469596 41.1871296 41.3815036 0 41.3815036"></polygon>
    </defs>
    <g id="Symbols" stroke="none" stroke-width="1" fill="none" fill-rule="evenodd">
        <g id="Logos-/-Icon-/-Freshbooks">
            <g id="app-icon-widget">
                <mask id="mask-2" fill="white">
                    <use xlink:href="#path-1"></use>
                </mask>
                <path stroke="#E7E7EA" d="M53.0977312,0.5 C53.7880872,0.5 54.4130872,0.779822031 54.8654982,1.23223305 C55.3179092,1.68464406 55.5977312,2.30964406 55.5977312,3 L55.5977312,3 L55.5977312,53 C55.5977312,53.6903559 55.3179092,54.3153559 54.8654982,54.767767 C54.4130872,55.220178 53.7880872,55.5 53.0977312,55.5 L53.0977312,55.5 L3,55.5 C2.30964406,55.5 1.68464406,55.220178 1.23223305,54.767767 C0.779822031,54.3153559 0.5,53.6903559 0.5,53 L0.5,53 L0.5,3 C0.5,2.30964406 0.779822031,1.68464406 1.23223305,1.23223305 C1.68464406,0.779822031 2.30964406,0.5 3,0.5 L3,0.5 Z"></path>
            </g>
            <g id="Group-4" transform="translate(7.000000, 7.000000)">
                <mask id="mask-4" fill="white">
                    <use xlink:href="#path-3"></use>
                </mask>
                <g id="Clip-3"></g>
                <path d="M31.4392514,7.50384738 C31.4392514,10.6481313 28.8910539,13.1934585 25.7496403,13.1934585 L19.6404724,13.1934585 L19.6404724,18.076248 L27.8813907,18.076248 L27.8813907,23.7919319 L19.6808972,23.7919319 L19.6808972,35.5588973 L12.9239758,35.5588973 L12.9239758,6.01721941 L19.6404724,6.01721941 L19.6404724,11.3741033 C19.8112612,8.38601696 22.2900908,6.01721941 25.3186019,6.01721941 L31.4392514,6.01721941 L31.4392514,7.50384738 Z M17.3640061,0.194373916 C7.77519586,0.194373916 0,7.96956977 0,17.5612504 L0,41.3815036 L23.8202532,41.3815036 C33.4119338,41.3815036 41.1871296,33.6065469 41.1871296,24.0174975 L41.1871296,0.194373916 L17.3640061,0.194373916 Z" id="Fill-2" fill="#0075DD" mask="url(#mask-4)"></path>
            </g>
            <rect id="State" fill="#F8F8F8" opacity="0" x="0" y="0" width="56" height="56"></rect>
        </g>
    </g>
</svg>