<?xml version="1.0" encoding="utf-8"?>
<!-- Generator: Adobe Illustrator 25.2.3, SVG Export Plug-In . SVG Version: 6.00 Build 0)  -->
<svg version="1.1" id="Layer_1" xmlns="http://www.w3.org/2000/svg" xmlns:xlink="http://www.w3.org/1999/xlink" x="0px" y="0px"
	 viewBox="0 0 56 56" style="enable-background:new 0 0 56 56;" xml:space="preserve">
<style type="text/css">
	.st0{fill:#FFFFFF;stroke:#E7E7EA;}
	.st1{filter:url(#Adobe_OpacityMaskFilter);}
	.st2{fill-rule:evenodd;clip-rule:evenodd;fill:#FFFFFF;}
	.st3{mask:url(#mask-4_1_);fill-rule:evenodd;clip-rule:evenodd;fill:#0075DD;}
	.st4{fill-rule:evenodd;clip-rule:evenodd;fill:#F8F8F8;fill-opacity:0;}
</style>
<g id="Logos-_x2F_-Icon-_x2F_-Freshbooks">
	<g id="app-icon-widget">
		<path class="st0" d="M53.1,0.5c0.7,0,1.3,0.3,1.8,0.7s0.7,1.1,0.7,1.8l0,0v50c0,0.7-0.3,1.3-0.7,1.8c-0.5,0.5-1.1,0.7-1.8,0.7l0,0
			H3c-0.7,0-1.3-0.3-1.8-0.7c-0.5-0.5-0.7-1.1-0.7-1.8l0,0V3c0-0.7,0.3-1.3,0.7-1.8S2.3,0.5,3,0.5l0,0H53.1z"/>
	</g>
	<g id="Group-4" transform="translate(7.000000, 7.000000)">
		<g id="Clip-3">
		</g>
		<defs>
			<filter id="Adobe_OpacityMaskFilter" filterUnits="userSpaceOnUse" x="0" y="0.2" width="41.2" height="41.2">
				<feColorMatrix  type="matrix" values="1 0 0 0 0  0 1 0 0 0  0 0 1 0 0  0 0 0 1 0"/>
			</filter>
		</defs>
		<mask maskUnits="userSpaceOnUse" x="0" y="0.2" width="41.2" height="41.2" id="mask-4_1_">
			<g class="st1">
				<polygon id="path-3_1_" class="st2" points="0,0.2 41.2,0.2 41.2,41.4 0,41.4 				"/>
			</g>
		</mask>
		<path id="Fill-2" class="st3" d="M31.4,7.5c0,3.1-2.5,5.7-5.7,5.7h-6.1v4.9h8.2v5.7h-8.2v11.8h-6.8V6h6.7v5.4
			c0.2-3,2.6-5.4,5.7-5.4h6.1V7.5z M17.4,0.2C7.8,0.2,0,8,0,17.6v23.8h23.8c9.6,0,17.4-7.8,17.4-17.4V0.2H17.4z"/>
	</g>
	<rect id="State" class="st4" width="56" height="56"/>
</g>
</svg>
